# xmcd
# Track frame offsets:
# 150
# 11473
# 30733
# 52250
# 65001
# 84666
# 95631
# 121331
# 134033
# 149588
# 190591
# 198084
# 211169
# 228626
# 262729
#
# Disc length: 4305 seconds
# Revision: 0
# Processed by: cddbd v1.5.1PL2 Copyright (c) Steve Scherf et al.
# Submitted via: VisiTrax 2.10.0.248 - For more info visit www.synapsa.com
#
DISCID=db10cf0f
DTITLE=Stevie.Ray Vaughan and Double Trouble - IN STEP
DYEAR=1999
DGENRE=
TTITLE0=The House Is Rockin'
TTITLE1=Crossfire
TTITLE2=Tightrope
TTITLE3=Let Me Love You Baby
TTITLE4=Leave My Girl Alone
TTITLE5=Travis Walk
TTITLE6=Wall Of Denial
TTITLE7=Scratch-N-Sniff
TTITLE8=Love Me Darlin'
TTITLE9=Riviera Paradise
TTITLE10=SRV Speaks
TTITLE11=The House Is Rockin' (LIVE)
TTITLE12=Let Me Love You Baby (LIVE)
TTITLE13=Texas Flood (LIVE)
TTITLE14=Life Without You (Live)
EXTD=In Step\nRelease Date: 03/23/1999
EXTT0=
EXTT1=
EXTT2=
EXTT3=
EXTT4=
EXTT5=
EXTT6=
EXTT7=
EXTT8=
EXTT9=
EXTT10=
EXTT11=
EXTT12=
EXTT13=
EXTT14=
PLAYORDER=
